<svg width="40" height="40" viewBox="0 0 40 40" fill="none" xmlns="http://www.w3.org/2000/svg">
<g clip-path="url(#clip0)">
<path d="M19.3074 9.63264C22.3641 9.63264 25.2374 10.9843 27.3474 13.0993V13.106C27.3474 12.091 28.0307 11.326 28.9791 11.326H29.2207C30.7057 11.326 31.0091 12.7293 31.0091 13.1743L31.0174 28.966C30.9124 30.001 32.0841 30.5343 32.7324 29.871C35.2674 27.2643 38.3024 16.4743 31.1557 10.221C24.4957 4.39264 15.5607 5.35264 10.8074 8.62931C5.75572 12.1143 2.52239 19.826 5.66406 27.0693C9.08739 34.9693 18.8824 37.3226 24.7041 34.976C27.6524 33.7843 29.0141 37.7693 25.9524 39.071C21.3257 41.0443 8.44906 40.8443 2.43572 30.4243C-1.62928 23.3893 -1.41261 11.0093 9.36572 4.59598C17.6107 -0.309024 28.4824 1.04931 35.0357 7.89431C41.8874 15.051 41.4891 28.451 34.8041 33.6626C31.7774 36.0293 27.2774 33.7243 27.3074 30.2776L27.2757 29.1476C25.1674 31.241 22.3624 32.461 19.3057 32.461C13.2641 32.461 7.95072 27.146 7.95072 21.1076C7.95072 15.0093 13.2657 9.63264 19.3074 9.63264V9.63264ZM26.9091 20.671C26.6807 16.2493 23.3991 13.5893 19.4357 13.5893H19.2857C14.7107 13.5893 12.1724 17.1876 12.1724 21.2726C12.1724 25.851 15.2424 28.741 19.2657 28.741C23.7541 28.741 26.7057 25.4526 26.9191 21.5643L26.9091 20.671V20.671Z" fill="black" fill-opacity="0.6"/>
</g>
<defs>
<clipPath id="clip0">
<rect width="40" height="40" fill="white"/>
</clipPath>
</defs>
</svg>
